<?xml version="1.0" encoding="utf-8"?>
<!-- Generator: Adobe Illustrator 19.0.0, SVG Export Plug-In . SVG Version: 6.00 Build 0)  -->
<svg version="1.1" xmlns="http://www.w3.org/2000/svg" xmlns:xlink="http://www.w3.org/1999/xlink" x="0px" y="0px"
	 viewBox="0 0 392 174" style="enable-background:new 0 0 392 174;" xml:space="preserve">
<style type="text/css">
	.st0{fill:#252525;}
	.st1{fill:#2C2C2C;}
	.st2{fill:#497BEF;}
	.st3{display:none;}
	.st4{display:inline;}
</style>
<g id="Capa_1">
</g>
<g id="Capa_3">
	<g id="XMLID_3_">
		<path id="XMLID_10_" class="st0" d="M188.2,132.4c-5.4,0-10.2-0.9-14.5-2.6c-4.3-1.7-8-4.2-11-7.6c-3-3.4-5.4-7.6-7-12.6
			c-1.7-5-2.5-10.9-2.5-17.7c0-6.7,0.8-12.6,2.5-17.8c1.7-5.2,4-9.5,7-13.1c3-3.5,6.7-6.2,11-8c4.3-1.8,9.2-2.7,14.5-2.7
			c7.3,0,13.4,1.5,18.2,4.5c4.8,3,8.6,7.7,11.5,14.1l-14.9,7.7c-1.1-3.3-2.7-6-4.9-8c-2.2-2-5.5-3-9.8-3c-5.1,0-9.1,1.6-12.2,4.9
			c-3.1,3.3-4.6,8.1-4.6,14.4v12.7c0,6.3,1.5,11.1,4.6,14.4c3.1,3.3,7.1,4.9,12.2,4.9c4.2,0,7.6-1.2,10.2-3.5
			c2.5-2.3,4.4-5.1,5.6-8.3l14.1,8.2c-3,6.1-6.8,10.7-11.6,14C201.6,130.7,195.5,132.4,188.2,132.4z"/>
		<path id="XMLID_55_" class="st0" d="M278.9,118.4h-0.6c-0.6,4-2.7,7.3-6.1,10c-3.5,2.6-8.2,4-14.2,4c-4.5,0-8.8-0.9-12.7-2.6
			c-3.9-1.7-7.4-4.3-10.3-7.7c-3-3.4-5.3-7.6-6.9-12.7c-1.7-5.1-2.5-10.9-2.5-17.6c0-6.7,0.9-12.6,2.6-17.7
			c1.7-5.1,4.2-9.5,7.3-12.9c3.1-3.5,6.9-6.1,11.3-7.9c4.4-1.8,9.3-2.7,14.6-2.7c7.1,0,13.2,1.5,18.4,4.6c5.1,3.1,9.2,7.7,12.2,13.8
			l-14.1,8.1c-1.2-3.1-3.1-5.7-5.7-7.9c-2.6-2.2-6.2-3.2-10.8-3.2c-5.4,0-9.7,1.6-12.8,4.7c-3.2,3.1-4.8,8-4.8,14.6v12.7
			c0,6.6,1.6,11.5,4.8,14.6c3.2,3.1,7.5,4.7,12.8,4.7c2.1,0,4.1-0.2,6-0.7c1.9-0.5,3.6-1.2,5-2.3c1.4-1,2.6-2.3,3.4-3.7
			c0.8-1.4,1.2-3.1,1.2-5.1v-4h-14.8V86.8h31.2V131h-14.5V118.4z"/>
		<path id="XMLID_87_" class="st0" d="M325.2,131l-25.6-79.3h17.5l11.8,38l6.2,24.9h0.3l6-24.9l11.8-38h16.9L344.5,131H325.2z"/>
	</g>
	<g id="XMLID_13_">
		<g id="XMLID_15_">
			<g id="XMLID_36_">
				<path id="XMLID_47_" class="st1" d="M133.3,54.2c4.5,0.1,8.9,0.5,13.3,1.5c6.9,1.5,13.1-7.2,7.3-12.5
					c-19.2-17.7-45.5-24.3-70.9-17.6c-5.8,1.5-6.8,8.4-3.3,12.5c5.1,6,8.9,13,11.3,20.5c1.5,4.5,6.7,7.1,11,4.5
					C111.7,57.3,122.2,54.3,133.3,54.2c9.6-0.1,9.7-15.1,0-15c-13.8,0.2-27,3.8-38.8,10.9c3.7,1.5,7.3,3,11,4.5
					c-3.3-10.1-8.3-19-15.2-27.1c-1.1,4.2-2.2,8.4-3.3,12.5c20-5.3,41-0.3,56.3,13.8c2.4-4.2,4.9-8.4,7.3-12.5
					c-5.7-1.3-11.5-2-17.3-2.1C123.7,39,123.7,54,133.3,54.2z"/>
			</g>
		</g>
		<g id="XMLID_57_">
			<g id="XMLID_169_">
				<path id="XMLID_173_" class="st2" d="M94.8,111.6c-11.7-1.7-22.5-6.1-31.5-13.7c-3.8-3.2-9-2.8-11.8,1.5
					c-9.6,14.5-13.9,31.9-12,49.2c0.6,5.2,4.3,8.1,9.5,7.2c20.8-3.5,38.7-15.7,50.3-33.2c5.3-8.1-7.6-15.6-13-7.6
					C76.8,129.5,62,138.5,45,141.4c3.2,2.4,6.3,4.8,9.5,7.2c-1.6-14.9,1.7-29.1,10-41.6c-3.9,0.5-7.9,1-11.8,1.5
					c11,9.3,23.9,15.5,38.1,17.6c4,0.6,8-1,9.2-5.2C101.1,117.3,98.8,112.2,94.8,111.6z"/>
			</g>
		</g>
	</g>
	<g id="XMLID_6_">
		<g id="XMLID_2_">
			<g id="XMLID_80_">
				<path id="XMLID_85_" class="st1" d="M86.8,54.1c5,18.3-10.8,35.6-29.6,31.3C52,84.3,46.2,89,48,94.7
					c6.2,19.2,24.9,31.1,44.9,27.8c19.1-3.1,32.5-20.2,32.9-39.1c0.2-9.7-14.8-9.7-15,0c-0.3,12-8.6,22.3-20.6,24.4
					c-12.2,2.1-24.1-5.5-27.8-17.1c-3.1,3.1-6.2,6.2-9.2,9.2c29.7,6.7,56.1-20.1,48-49.8C98.7,40.9,84.3,44.8,86.8,54.1L86.8,54.1z"
					/>
			</g>
		</g>
		<g id="XMLID_9_">
			<g id="XMLID_163_">
				<path id="XMLID_167_" class="st2" d="M86.2,58.7c2,0.1,3.9,0.3,5.9,0.7c5.3,1.2,11.1-3.5,9.2-9.2c-4.3-13.4-15.1-24.3-29.1-27.4
					c-13.5-3-28,1-37.6,11.1C13.7,55.6,24.5,92,53.3,99.9c5.5,1.5,10.7-3.7,9.2-9.2C58.1,74.7,69.4,59,86.2,58.7
					c9.6-0.2,9.7-15.2,0-15C59.8,44.2,41,69.2,48,94.7c3.1-3.1,6.2-6.2,9.2-9.2C39.5,80.6,32,58.2,45.2,44.4
					c13-13.6,35.9-8,41.6,9.8c3.1-3.1,6.2-6.2,9.2-9.2c-3.3-0.7-6.5-1.2-9.9-1.2C76.5,43.4,76.5,58.4,86.2,58.7z"/>
			</g>
		</g>
	</g>

		<text id="XMLID_24_" transform="matrix(1 0 0 1 173.9584 311)" class="st3" style="font-family:'IBMPlexSans'; font-size:14px; letter-spacing:8;">ASESORÍAS</text>

		<text id="XMLID_19_" transform="matrix(1 0 0 1 166.9008 267.5)" class="st3" style="font-family:'IBMPlexSans-Bold'; font-size:100px;">cgv</text>
	<g id="XMLID_16_" class="st3">
		<g id="XMLID_18_" class="st4">
			<g id="XMLID_75_">
				<path id="XMLID_79_" d="M132.7,226.2c4.5,0.1,8.9,0.5,13.3,1.5c6.9,1.5,13.1-7.2,7.3-12.5c-19.2-17.7-45.5-24.3-70.9-17.6
					c-5.8,1.5-6.8,8.4-3.3,12.5c5.1,6,8.9,13,11.3,20.5c1.5,4.5,6.7,7.1,11,4.5C111.1,229.3,121.5,226.3,132.7,226.2
					c9.6-0.1,9.7-15.1,0-15c-13.8,0.2-27,3.8-38.8,10.9c3.7,1.5,7.3,3,11,4.5c-3.3-10.1-8.3-19-15.2-27.1c-1.1,4.2-2.2,8.4-3.3,12.5
					c20-5.3,41-0.3,56.3,13.8c2.4-4.2,4.9-8.4,7.3-12.5c-5.7-1.3-11.5-2-17.3-2.1C123,211,123,226,132.7,226.2z"/>
			</g>
		</g>
		<g id="XMLID_17_">
			<g id="XMLID_59_" class="st4">
				<path id="XMLID_72_" d="M94.2,283.6c-11.7-1.7-22.5-6.1-31.5-13.7c-3.8-3.2-9-2.8-11.8,1.5c-9.6,14.5-13.9,31.9-12,49.2
					c0.6,5.2,4.3,8.1,9.5,7.2c20.8-3.5,38.7-15.7,50.3-33.2c5.3-8.1-7.6-15.6-13-7.6c-9.6,14.4-24.3,23.5-41.3,26.3
					c3.2,2.4,6.3,4.8,9.5,7.2c-1.6-14.9,1.7-29.1,10-41.6c-3.9,0.5-7.9,1-11.8,1.5c11,9.3,23.9,15.5,38.1,17.6c4,0.6,8-1,9.2-5.2
					C100.4,289.3,98.2,284.2,94.2,283.6z"/>
			</g>
		</g>
	</g>
	<g id="XMLID_14_" class="st3">
		<g id="XMLID_64_" class="st4">
			<path id="XMLID_68_" d="M86.2,226.1c5,18.3-10.8,35.6-29.6,31.3c-5.3-1.2-11.1,3.5-9.2,9.2c6.2,19.2,24.9,31.1,44.9,27.8
				c19.1-3.1,32.5-20.2,32.9-39.1c0.2-9.7-14.8-9.7-15,0c-0.3,12-8.6,22.3-20.6,24.4c-12.2,2.1-24.1-5.5-27.8-17.1
				c-3.1,3.1-6.2,6.2-9.2,9.2c29.7,6.7,56.1-20.1,48-49.8C98.1,212.9,83.6,216.8,86.2,226.1L86.2,226.1z"/>
		</g>
	</g>
	<g id="XMLID_1_" class="st3">
		<g id="XMLID_60_" class="st4">
			<path id="XMLID_74_" d="M22.8,233.4c0.4,18.2,12.3,33.7,29.9,38.5c5.5,1.5,10.7-3.7,9.2-9.2c-5-18.3,10.8-35.6,29.6-31.3
				c5.3,1.2,11.1-3.5,9.2-9.2c-6.2-19.2-24.9-31.1-44.9-27.8C36.6,197.4,23.2,214.5,22.8,233.4c-0.2,9.7,14.8,9.7,15,0
				c0.3-12,8.6-22.3,20.6-24.4c12.2-2.1,24.1,5.5,27.8,17.1c3.1-3.1,6.2-6.2,9.2-9.2c-29.7-6.7-56.1,20.1-48,49.8
				c3.1-3.1,6.2-6.2,9.2-9.2c-11.1-3.1-18.6-12.5-18.9-24C37.5,223.8,22.5,223.7,22.8,233.4L22.8,233.4z"/>
		</g>
	</g>
</g>
</svg>
