<svg xmlns="http://www.w3.org/2000/svg" xmlns:xlink="http://www.w3.org/1999/xlink" viewBox="0 0 1118 1080">
  <defs>
    <style>
      .cls-1 {
        clip-path: url(#clip-team-work);
      }

      .cls-2, .cls-6 {
        fill: none;
      }

      .cls-2 {
        stroke: #dfdfdf;
      }

      .cls-3 {
        fill: #fff;
      }

      .cls-4 {
        fill: #497bef;
      }

      .cls-5 {
        stroke: none;
      }

      .cls-7 {
        filter: url(#Ellipse_40);
      }

      .cls-8 {
        filter: url(#Ellipse_47);
      }

      .cls-9 {
        filter: url(#Ellipse_45);
      }
    </style>
    <filter id="Ellipse_45" x="151.5" y="271.5" width="353" height="353" filterUnits="userSpaceOnUse">
      <feOffset dy="46" input="SourceAlpha"/>
      <feGaussianBlur stdDeviation="41.5" result="blur"/>
      <feFlood flood-opacity="0.141"/>
      <feComposite operator="in" in2="blur"/>
      <feComposite in="SourceGraphic"/>
    </filter>
    <filter id="Ellipse_47" x="499.5" y="645.5" width="353" height="353" filterUnits="userSpaceOnUse">
      <feOffset dy="46" input="SourceAlpha"/>
      <feGaussianBlur stdDeviation="41.5" result="blur-2"/>
      <feFlood flood-opacity="0.141"/>
      <feComposite operator="in" in2="blur-2"/>
      <feComposite in="SourceGraphic"/>
    </filter>
    <filter id="Ellipse_40" x="772.5" y="65.5" width="353" height="353" filterUnits="userSpaceOnUse">
      <feOffset dy="46" input="SourceAlpha"/>
      <feGaussianBlur stdDeviation="41.5" result="blur-3"/>
      <feFlood flood-opacity="0.141"/>
      <feComposite operator="in" in2="blur-3"/>
      <feComposite in="SourceGraphic"/>
    </filter>
    <clipPath id="clip-team-work">
      <rect width="1118" height="1080"/>
    </clipPath>
  </defs>
  <g id="team-work" class="cls-1">
    <g id="Group_7" data-name="Group 7" transform="translate(-398 -5212)">
      <g id="Ellipse_42" data-name="Ellipse 42" class="cls-2" transform="translate(900 5692)">
        <circle class="cls-5" cx="60" cy="60" r="60"/>
        <circle class="cls-6" cx="60" cy="60" r="59.5"/>
      </g>
      <g id="Ellipse_43" data-name="Ellipse 43" class="cls-2" transform="translate(686 5478)">
        <circle class="cls-5" cx="274" cy="274" r="274"/>
        <circle class="cls-6" cx="274" cy="274" r="273.5"/>
      </g>
      <g id="Ellipse_44" data-name="Ellipse 44" class="cls-2" transform="translate(444 5236)">
        <circle class="cls-5" cx="516" cy="516" r="516"/>
        <circle class="cls-6" cx="516" cy="516" r="515.5"/>
      </g>
      <g class="cls-9" transform="matrix(1, 0, 0, 1, 398, 5212)">
        <circle id="Ellipse_45-2" data-name="Ellipse 45" class="cls-3" cx="52" cy="52" r="52" transform="translate(276 350)"/>
      </g>
      <path id="ic_gavel_24px" class="cls-4" d="M1,21H13v2H1ZM5.245,8.07l2.83-2.827,14.14,14.142-2.828,2.828ZM12.317,1l5.657,5.656-2.83,2.83L9.49,3.826ZM3.825,9.485l5.657,5.657L6.654,17.97,1,12.313Z" transform="translate(714.003 5602)"/>
    </g>
    <g id="Group_20" data-name="Group 20" transform="translate(-314 -2449)">
      <g class="cls-8" transform="matrix(1, 0, 0, 1, 314, 2449)">
        <circle id="Ellipse_47-2" data-name="Ellipse 47" class="cls-3" cx="52" cy="52" r="52" transform="translate(624 724)"/>
      </g>
      <path id="ic_timeline_24px" class="cls-4" d="M23,8a2.006,2.006,0,0,1-2,2,1.7,1.7,0,0,1-.51-.07l-3.56,3.55A1.766,1.766,0,0,1,17,14a2,2,0,0,1-4,0,1.766,1.766,0,0,1,.07-.52l-2.55-2.55a1.966,1.966,0,0,1-1.04,0L4.93,15.49A1.7,1.7,0,0,1,5,16a2,2,0,1,1-2-2,1.7,1.7,0,0,1,.51.07L8.07,9.52A1.766,1.766,0,0,1,8,9a2,2,0,0,1,4,0,1.766,1.766,0,0,1-.07.52l2.55,2.55a1.966,1.966,0,0,1,1.04,0l3.55-3.56A1.7,1.7,0,0,1,19,8a2,2,0,0,1,4,0Z" transform="translate(978 3213)"/>
    </g>
    <g class="cls-7" transform="matrix(1, 0, 0, 1, 0, 0)">
      <circle id="Ellipse_40-2" data-name="Ellipse 40" class="cls-3" cx="52" cy="52" r="52" transform="translate(897 144)"/>
    </g>
    <path id="ic_layers_24px" class="cls-4" d="M11.99,18.54,4.62,12.81,3,14.07l9,7,9-7L19.37,12.8l-7.38,5.74ZM12,16l7.36-5.73L21,9,12,2,3,9l1.63,1.27Z" transform="translate(937 184)"/>
  </g>
</svg>
